<svg width="31" height="25" viewBox="0 0 31 25" fill="none" xmlns="http://www.w3.org/2000/svg">
<path d="M15.4079 11.7805C15.4079 11.7805 15.5179 10.5571 16.0666 10.0016C16.0666 10.0016 11.7127 -1.37836 29.0004 0.139354C29.0004 0.139354 31.0003 12.2984 19.969 12.4917C19.969 12.4917 20.9642 9.10859 23.6674 6.84933C24.0661 6.51607 23.8428 5.90436 23.5047 5.51916C23.1012 5.05894 22.3373 5.03442 21.9035 5.47156C20.288 7.09747 16.9278 11.1024 16.5705 16.576H14.1624C14.1624 16.576 14.7237 10.9884 7.40358 6.78585C6.94268 6.52184 6.33825 6.58964 5.96347 6.94887C5.54563 7.34994 5.55201 7.97752 5.97623 8.37138L9.94729 12.0618C9.94729 12.0618 1.64793 14.3759 1.97008 2.23847C1.97008 2.23847 13.2597 0.663049 13.1943 8.83304C13.1959 8.83448 14.9757 9.82417 15.4079 11.7805Z" fill="url(#paint0_linear_269_2924)"/>
<path d="M30.2719 24.9998H0.726562C1.43785 21.8403 4.52539 19.4627 8.22853 19.4627C8.96214 19.4627 9.67023 19.5565 10.3416 19.7296C11.6127 18.877 13.1884 18.3721 14.8948 18.3721C16.5885 18.3721 18.153 18.8684 19.4193 19.7109C20.7143 19.7902 21.9183 20.1596 22.9565 20.7496C23.0395 20.7467 23.1224 20.7453 23.2069 20.7453C26.3886 20.7453 29.1157 22.5011 30.2719 24.9998Z" fill="url(#paint1_linear_269_2924)"/>
<defs>
<linearGradient id="paint0_linear_269_2924" x1="15.5515" y1="0" x2="15.5515" y2="16.576" gradientUnits="userSpaceOnUse">
<stop stop-color="#4834AA"/>
<stop offset="1" stop-color="#1D8AA2"/>
</linearGradient>
<linearGradient id="paint1_linear_269_2924" x1="15.4992" y1="18.3721" x2="15.4992" y2="24.9998" gradientUnits="userSpaceOnUse">
<stop stop-color="#4834AA"/>
<stop offset="1" stop-color="#1D8AA2"/>
</linearGradient>
</defs>
</svg>
