<svg width="108" height="76" viewBox="0 0 108 76" fill="none" xmlns="http://www.w3.org/2000/svg">
<path fill-rule="evenodd" clip-rule="evenodd" d="M87.9862 6.62618C92.2355 6.62618 95.682 10.0695 95.682 14.3157V50.4957C95.682 54.7419 82.2693 50.5396 82.2285 50.5396C83.2258 48.0967 83.0376 46.8674 81.6578 46.8454C81.2971 46.8391 80.4379 44.299 80.0678 44.2927C72.325 44.1704 55.4188 44.7474 29.3461 46.0238C25.1407 45.9579 21.7695 42.5365 21.7695 38.3374V14.3125C21.7695 10.0664 25.216 6.62305 29.4653 6.62305H87.9862V6.62618Z" fill="url(#paint0_linear_269_3842)"/>
<path fill-rule="evenodd" clip-rule="evenodd" d="M18.6324 14.5762L52.9372 28.7979C71.6559 23.5044 84.7331 20.0109 92.203 18.3049L93.4355 23.6267C85.9624 25.3295 72.6469 28.8952 53.5204 34.311L52.5953 34.5745L16.5156 19.6157L18.6324 14.5762Z" fill="#8DD5E4"/>
<path fill-rule="evenodd" clip-rule="evenodd" d="M78.7419 41.643V46.0271H7.68634C5.86746 46.0271 4.3904 47.501 4.3904 49.3168V60.2802C4.3904 62.096 5.86432 63.5699 7.68634 63.5699H66.7278C67.377 63.5699 68.8101 64.1218 68.8101 65.7306C68.8101 66.8031 68.1171 67.5432 66.7278 67.954H7.68634C3.44019 67.954 0 64.517 0 60.2802V49.3168C0 45.0769 3.44019 41.643 7.68634 41.643H78.7419ZM82.1852 0C88.8555 0 94.2619 5.42528 94.2619 12.1175V40.9907C94.2619 42.8158 92.788 44.296 90.9691 44.296C89.1503 44.296 87.6763 42.8158 87.6763 40.9907V19.023L53.4751 28.8355C52.8887 29.0049 52.2646 29.008 51.675 28.8418L18.5087 19.5937V34.1479C18.5087 35.9731 17.0348 37.4533 15.2159 37.4533C13.397 37.4533 11.9231 35.9731 11.9231 34.1479V12.1175C11.9231 5.42528 17.3295 0 23.9998 0H82.1852ZM82.1852 6.60756H23.9998C20.9673 6.60756 18.5118 9.07245 18.5118 12.1144V12.7667L52.55 22.2593L87.6763 12.1834V12.1144C87.6763 9.07559 85.2177 6.60756 82.1852 6.60756Z" fill="url(#paint1_linear_269_3842)"/>
<path fill-rule="evenodd" clip-rule="evenodd" d="M56.0968 49.4048C56.4606 49.4048 56.7648 49.7999 56.7648 50.286V52.5063L58.3453 50.9257C58.6809 50.5902 59.167 50.5306 59.4398 50.8034L59.8663 51.2299C60.1391 51.5028 60.0795 51.9889 59.744 52.3244L58.1007 53.9677H60.4433C60.9294 53.9677 61.3245 54.2719 61.3245 54.6356V55.244C61.3245 55.6078 60.9294 55.912 60.4433 55.912H58.1917L59.744 57.4643C60.0795 57.7999 60.1391 58.2859 59.8663 58.5588L59.4398 58.9853C59.167 59.2581 58.6809 59.1985 58.3453 58.863L56.7648 57.2824V59.5027C56.7648 59.9888 56.4606 60.3839 56.0968 60.3839H55.4884C55.1246 60.3839 54.8204 59.9888 54.8204 59.5027V57.2511L53.2681 58.8034C52.9326 59.1389 52.4465 59.1985 52.1737 58.9257L51.7472 58.4992C51.4743 58.2264 51.5339 57.7403 51.8695 57.4047L53.3591 55.9151H51.2297C50.7436 55.9151 50.3485 55.6109 50.3485 55.2472V54.6356C50.3485 54.2719 50.7436 53.9677 51.2297 53.9677H53.45L51.8695 52.3871C51.5339 52.0516 51.4743 51.5655 51.7472 51.2927L52.1737 50.8662C52.4465 50.5933 52.9326 50.6529 53.2681 50.9885L54.8204 52.5408V50.2891C54.8204 49.8031 55.1246 49.4079 55.4884 49.4079H56.0968V49.4048ZM41.9001 49.4048C42.2639 49.4048 42.5681 49.7999 42.5681 50.286V52.5063L44.1486 50.9257C44.4842 50.5902 44.9703 50.5306 45.2431 50.8034L45.6696 51.2299C45.9424 51.5028 45.8828 51.9889 45.5473 52.3244L43.904 53.9677H46.2466C46.7327 53.9677 47.1278 54.2719 47.1278 54.6356V55.244C47.1278 55.6078 46.7327 55.912 46.2466 55.912H43.995L45.5473 57.4643C45.8828 57.7999 45.9424 58.2859 45.6696 58.5588L45.2431 58.9853C44.9703 59.2581 44.4842 59.1985 44.1486 58.863L42.5681 57.2824V59.5027C42.5681 59.9888 42.2639 60.3839 41.9001 60.3839H41.2917C40.928 60.3839 40.6238 59.9888 40.6238 59.5027V57.2511L39.0714 58.8034C38.7359 59.1389 38.2498 59.1985 37.977 58.9257L37.5505 58.4992C37.2777 58.2264 37.3372 57.7403 37.6728 57.4047L39.1624 55.9151H37.033C36.547 55.9151 36.1518 55.6109 36.1518 55.2472V54.6356C36.1518 54.2719 36.547 53.9677 37.033 53.9677H39.2533L37.6728 52.3871C37.3372 52.0516 37.2777 51.5655 37.5505 51.2927L37.977 50.8662C38.2498 50.5933 38.7359 50.6529 39.0714 50.9885L40.6238 52.5408V50.2891C40.6238 49.8031 40.928 49.4079 41.2917 49.4079H41.9001V49.4048ZM27.5121 49.4048C27.8759 49.4048 28.1801 49.7999 28.1801 50.286V52.5063L29.7607 50.9257C30.0962 50.5902 30.5823 50.5306 30.8551 50.8034L31.2816 51.2299C31.5545 51.5028 31.4949 51.9889 31.1593 52.3244L29.5161 53.9677H31.8586C32.3447 53.9677 32.7399 54.2719 32.7399 54.6356V55.244C32.7399 55.6078 32.3447 55.912 31.8586 55.912H29.6133L31.1656 57.4643C31.5011 57.7999 31.5607 58.2859 31.2879 58.5588L30.8614 58.9853C30.5886 59.2581 30.1025 59.1985 29.7669 58.863L28.1864 57.2824V59.5027C28.1864 59.9888 27.8822 60.3839 27.5184 60.3839H26.91C26.5463 60.3839 26.2421 59.9888 26.2421 59.5027V57.2511L24.6897 58.8034C24.3542 59.1389 23.8681 59.1985 23.5953 58.9257L23.1688 58.4992C22.896 58.2264 22.9555 57.7403 23.2911 57.4047L24.7807 55.9151H22.6513C22.1653 55.9151 21.7701 55.6109 21.7701 55.2472V54.6356C21.7701 54.2719 22.1653 53.9677 22.6513 53.9677H24.8716L23.2911 52.3871C22.9555 52.0516 22.896 51.5655 23.1688 51.2927L23.5953 50.8662C23.8681 50.5933 24.3542 50.6529 24.6897 50.9885L26.2421 52.5408V50.2891C26.2421 49.8031 26.5463 49.4079 26.91 49.4079H27.5121V49.4048ZM13.3155 49.4048C13.6792 49.4048 13.9834 49.7999 13.9834 50.286V52.5063L15.564 50.9257C15.8995 50.5902 16.3856 50.5306 16.6584 50.8034L17.0849 51.2299C17.3578 51.5028 17.2982 51.9889 16.9626 52.3244L15.3194 53.9677H17.6651C18.1512 53.9677 18.5463 54.2719 18.5463 54.6356V55.244C18.5463 55.6078 18.1512 55.912 17.6651 55.912H15.4135L16.9658 57.4643C17.3013 57.7999 17.3609 58.2859 17.0881 58.5588L16.6616 58.9853C16.3887 59.2581 15.9027 59.1985 15.5671 58.863L13.9866 57.2824V59.5027C13.9866 59.9888 13.6824 60.3839 13.3186 60.3839H12.7102C12.3464 60.3839 12.0423 59.9888 12.0423 59.5027V57.2511L10.4899 58.8034C10.1544 59.1389 9.6683 59.1985 9.39547 58.9257L8.96897 58.4992C8.69614 58.2264 8.75572 57.7403 9.09127 57.4047L10.5809 55.9151H8.45153C7.96545 55.9151 7.57031 55.6109 7.57031 55.2472V54.6356C7.57031 54.2719 7.96545 53.9677 8.45153 53.9677H10.6718L9.09127 52.3871C8.75572 52.0516 8.69614 51.5655 8.96897 51.2927L9.39547 50.8662C9.6683 50.5933 10.1544 50.6529 10.4899 50.9885L12.0423 52.5408V50.2891C12.0423 49.8031 12.3464 49.4079 12.7102 49.4079H13.3155V49.4048Z" fill="#A7AEBD"/>
<path fill-rule="evenodd" clip-rule="evenodd" d="M93.2157 50.5396C97.4524 50.5396 100.886 53.9797 100.886 58.2259V64.8146C100.886 69.0576 97.4524 72.501 93.2157 72.501H87.7371C83.5003 72.501 80.0664 69.0608 80.0664 64.8146V58.2259C80.0664 53.9829 83.5003 50.5396 87.7371 50.5396H93.2157Z" fill="#EDEDED"/>
<path fill-rule="evenodd" clip-rule="evenodd" d="M103.297 47.1343C105.728 47.1343 107.697 49.1162 107.697 51.5623V71.4822C107.697 73.9283 105.728 75.9102 103.297 75.9102H76.892C74.4616 75.9102 72.4922 73.9283 72.4922 71.4822V51.5623C72.4922 49.1162 74.4616 47.1343 76.892 47.1343H103.297ZM87.8617 54.7893C86.6293 54.7893 85.6289 55.7771 85.6289 56.997V64.7241C85.6289 65.944 86.6293 66.9319 87.8617 66.9319C89.0942 66.9319 90.0946 65.944 90.0946 64.7241V56.997C90.0946 55.7771 89.0942 54.7893 87.8617 54.7893Z" fill="url(#paint2_linear_269_3842)"/>
<path fill-rule="evenodd" clip-rule="evenodd" d="M104.282 50.4961C106.098 50.4961 107.572 51.9763 107.572 53.8014V72.5328C107.572 74.3579 106.098 75.8381 104.282 75.8381C102.466 75.8381 100.992 74.3579 100.992 72.5328V53.8014C100.992 51.9763 102.466 50.4961 104.282 50.4961Z" fill="white" fill-opacity="0.06"/>
<path fill-rule="evenodd" clip-rule="evenodd" d="M103.299 47.1343C103.416 47.1343 103.532 47.1374 103.644 47.1468C103.688 47.2879 103.71 47.4385 103.71 47.5921C103.71 48.0939 103.459 48.5643 103.042 48.8434L101.412 49.9347C99.7903 51.0198 97.8868 51.5999 95.9393 51.5999H72.4883V51.5623C72.4883 49.1162 74.4577 47.1343 76.8881 47.1343H103.299Z" fill="#4B4EAE" fill-opacity="0.5"/>
<path fill-rule="evenodd" clip-rule="evenodd" d="M90.0981 28.9609C96.6774 28.9609 102.024 34.5869 102.024 41.5426V46.4034C102.024 47.9275 100.864 49.1599 99.4308 49.1599C97.9977 49.1599 96.8374 47.9243 96.8374 46.4034V41.5426C96.8374 37.6477 93.8268 34.4772 90.0981 34.4772C86.3694 34.4772 83.3588 37.6477 83.3588 41.5426V46.4598C83.3588 47.9839 82.1985 49.2164 80.7654 49.2164C79.3322 49.2164 78.1719 47.9808 78.1719 46.4598V41.5426C78.175 34.5869 83.5188 28.9609 90.0981 28.9609Z" fill="#C5C5C5"/>
<defs>
<linearGradient id="paint0_linear_269_3842" x1="39.7812" y1="14.7019" x2="55.6967" y2="40.1779" gradientUnits="userSpaceOnUse">
<stop stop-color="#E6FBFF"/>
<stop offset="1" stop-color="#C9F5FF"/>
</linearGradient>
<linearGradient id="paint1_linear_269_3842" x1="1.98788" y1="23.4799" x2="88.647" y2="63.9993" gradientUnits="userSpaceOnUse">
<stop stop-color="#4834AA"/>
<stop offset="1" stop-color="#1D8AA2"/>
</linearGradient>
<linearGradient id="paint2_linear_269_3842" x1="78.1296" y1="48.4639" x2="91.4789" y2="70.2839" gradientUnits="userSpaceOnUse">
<stop stop-color="#1D8AA2"/>
<stop offset="1" stop-color="#4834AA"/>
</linearGradient>
</defs>
</svg>
