<svg width="19" height="22" viewBox="0 0 19 22" fill="none" xmlns="http://www.w3.org/2000/svg">
<path d="M8.99512 0.5C11.9328 0.495864 14.3477 2.81624 14.4932 5.71582L14.5 5.99805C14.4973 9.02971 12.0211 11.5034 8.99414 11.5C5.9676 11.4966 3.49003 9.00918 3.5 5.98633C3.51024 2.95867 5.96935 0.504281 8.99512 0.5ZM9 1.06543C6.28233 1.06544 4.06359 3.28232 4.06445 5.99707C4.06549 8.71105 6.28718 10.9336 9 10.9336C11.7128 10.9336 13.9332 8.7125 13.9355 5.99805C13.9376 3.28382 11.7177 1.06543 9 1.06543Z" fill="white" fill-opacity="0.37" stroke="white"/>
<path d="M9.25293 13.5C11.8651 13.544 13.9834 14.2028 15.8027 15.7217C17.1232 16.8239 18.0199 18.181 18.3662 19.873L18.4277 20.2168C18.4531 20.3776 18.4696 20.5425 18.4805 20.7119L18.5 21.2334C18.5017 21.3701 18.393 21.4777 18.2891 21.4902C18.1544 21.5063 18.0565 21.4445 18.0176 21.3408L18.0049 21.293C17.9877 21.201 17.9803 21.0992 17.9736 20.9688C17.9706 20.9083 17.9675 20.8383 17.9629 20.7646L17.9424 20.5361C17.6898 18.5114 16.6336 17.0009 15.1006 15.875C13.224 14.4961 11.1037 13.9877 8.86035 14.1211C7.06499 14.2282 5.38412 14.7753 3.89453 15.8779C2.47602 16.9278 1.45092 18.3129 1.1123 20.1709C1.08092 20.3432 1.06293 20.5291 1.05078 20.7051L1.02051 21.1807C1.00462 21.3753 0.898656 21.4683 0.818359 21.4912H0.816406C0.707979 21.522 0.603251 21.4715 0.563477 21.3984H0.564453C0.526732 21.3289 0.49927 21.2207 0.5 21.1289C0.523807 19.3301 1.18602 17.82 2.35352 16.5342L2.59375 16.2803C4.04945 14.7994 5.82329 13.969 7.8457 13.6523H7.84766C8.38087 13.567 8.89996 13.5345 9.25293 13.5Z" fill="white" fill-opacity="0.37" stroke="white"/>
</svg>
