<svg width="85" height="87" viewBox="0 0 85 87" fill="none" xmlns="http://www.w3.org/2000/svg">
<path d="M79.7816 1.04834C82.0308 1.04834 83.8541 2.91072 83.8541 5.2081V26.238C83.8541 28.5354 82.0308 30.3977 79.7816 30.3977H5.11938C2.87019 30.3977 1.04688 28.5354 1.04688 26.238V5.2081C1.04688 2.91075 2.87019 1.04834 5.11938 1.04834C9.00676 1.04834 82.1298 1.04834 79.7816 1.04834Z" fill="#1D8AA2" fill-opacity="0.23"/>
<path d="M82.9045 5.35521C82.9045 3.55814 81.5392 2.1154 79.8663 2.09297L79.8268 2.09271H5.07686C3.38603 2.09271 1.99916 3.54402 1.99916 5.35521V27.1388C1.99916 28.95 3.38602 30.4013 5.07686 30.4013H79.8268C81.5176 30.4013 82.9045 28.95 82.9045 27.1388V5.35521ZM84.9036 27.1388C84.9036 30.087 82.6396 32.494 79.8268 32.494H5.07686C2.26403 32.494 0 30.087 0 27.1388V5.35521C0 2.40704 2.26403 1.26711e-06 5.07686 0H79.8822C79.8822 0.000124001 79.8821 0.000247997 79.8821 0.000371998C82.6692 0.0317211 84.9036 2.42636 84.9036 5.35521V27.1388Z" fill="url(#paint0_linear_269_3883)"/>
<path d="M13.6289 21.0429V10.4026C13.6289 9.86741 14.0982 9.43359 14.6771 9.43359C15.256 9.43359 15.7253 9.86741 15.7253 10.4026V21.0429C15.7253 21.5781 15.256 22.0119 14.6771 22.0119C14.0982 22.0119 13.6289 21.5781 13.6289 21.0429Z" fill="url(#paint1_linear_269_3883)"/>
<path d="M18.4034 11.6811C18.8853 11.3702 19.5021 11.5536 19.781 12.0908C20.06 12.6279 19.8954 13.3153 19.4136 13.6262L9.90012 19.764C9.41823 20.0749 8.80146 19.8915 8.52252 19.3544C8.24358 18.8172 8.40811 18.1298 8.89001 17.8189L18.4034 11.6811Z" fill="url(#paint2_linear_269_3883)"/>
<path d="M8.52252 12.0907C8.80146 11.5536 9.41822 11.3702 9.90012 11.6811L19.4135 17.8189L19.4359 17.8337C19.9005 18.1512 20.0556 18.8256 19.781 19.3544C19.5021 19.8915 18.8853 20.0749 18.4034 19.764L8.89001 13.6262C8.40811 13.3153 8.24358 12.6279 8.52252 12.0907Z" fill="url(#paint3_linear_269_3883)"/>
<path d="M32.4961 21.0429V10.4026C32.4961 9.86741 32.9654 9.43359 33.5443 9.43359C34.1232 9.43359 34.5925 9.86741 34.5925 10.4026V21.0429C34.5925 21.5781 34.1232 22.0119 33.5443 22.0119C32.9654 22.0119 32.4961 21.5781 32.4961 21.0429Z" fill="url(#paint4_linear_269_3883)"/>
<path d="M38.1812 11.6811C38.7069 11.3702 39.3798 11.5536 39.6841 12.0907C39.9884 12.6279 39.8089 13.3153 39.2832 13.6262L28.9049 19.764C28.3792 20.0749 27.7063 19.8915 27.4021 19.3544C27.0978 18.8172 27.2772 18.1298 27.803 17.8189L38.1812 11.6811Z" fill="url(#paint5_linear_269_3883)"/>
<path d="M27.402 12.0907C27.7063 11.5536 28.3792 11.3702 28.9049 11.6811L39.2832 17.8189L39.3076 17.8337C39.8144 18.1512 39.9836 18.8256 39.6841 19.3543C39.3845 19.8831 38.7278 20.0691 38.2059 19.7782L38.1812 19.764L27.803 13.6262C27.2772 13.3153 27.0978 12.6279 27.402 12.0907Z" fill="url(#paint6_linear_269_3883)"/>
<path d="M50.3125 21.0429V10.4026C50.3125 9.86741 50.7818 9.43359 51.3607 9.43359C51.9396 9.43359 52.4089 9.86741 52.4089 10.4026V21.0429C52.4089 21.5781 51.9396 22.0119 51.3607 22.0119C50.7818 22.0119 50.3125 21.5781 50.3125 21.0429Z" fill="url(#paint7_linear_269_3883)"/>
<path d="M55.9976 11.6811C56.5233 11.3702 57.1962 11.5536 57.5005 12.0907C57.8048 12.6279 57.6253 13.3153 57.0996 13.6262L46.7213 19.764C46.1956 20.0749 45.5228 19.8915 45.2185 19.3544C44.9142 18.8172 45.0937 18.1298 45.6194 17.8189L55.9976 11.6811Z" fill="url(#paint8_linear_269_3883)"/>
<path d="M45.2185 12.0907C45.5228 11.5536 46.1956 11.3702 46.7213 11.6811L57.0996 17.8189L57.124 17.8337C57.6308 18.1512 57.8 18.8256 57.5005 19.3543C57.2009 19.8831 56.5442 20.0691 56.0223 19.7782L55.9976 19.764L45.6194 13.6262C45.0937 13.3153 44.9142 12.6279 45.2185 12.0907Z" fill="url(#paint9_linear_269_3883)"/>
<path d="M69.1797 21.0429V10.4026C69.1797 9.86741 69.649 9.43359 70.2279 9.43359C70.8068 9.43359 71.2761 9.86741 71.2761 10.4026V21.0429C71.2761 21.5781 70.8068 22.0119 70.2279 22.0119C69.649 22.0119 69.1797 21.5781 69.1797 21.0429Z" fill="url(#paint10_linear_269_3883)"/>
<path d="M75.005 11.6811C75.4869 11.3702 76.1037 11.5536 76.3826 12.0907C76.6615 12.6279 76.497 13.3153 76.0151 13.6262L66.5017 19.764C66.0198 20.0749 65.403 19.8915 65.1241 19.3544C64.8451 18.8172 65.0097 18.1298 65.4916 17.8189L75.005 11.6811Z" fill="url(#paint11_linear_269_3883)"/>
<path d="M65.1241 12.0907C65.403 11.5536 66.0198 11.3702 66.5017 11.6811L76.0151 17.8189L76.0375 17.8337C76.5021 18.1512 76.6572 18.8256 76.3826 19.3544C76.108 19.8831 75.5061 20.0691 75.0277 19.7782L75.005 19.764L65.4916 13.6262C65.0097 13.3153 64.8451 12.6279 65.1241 12.0907Z" fill="url(#paint12_linear_269_3883)"/>
<path d="M40.8789 81.7622V53.4548C40.8789 51.1409 42.6876 49.2651 44.9187 49.2651H79.815C82.0461 49.2651 83.8548 51.1409 83.8548 53.4548V81.7622C83.8548 84.0761 82.0461 85.9519 79.815 85.9519H44.9187C42.6876 85.9519 40.8789 84.0761 40.8789 81.7622Z" fill="#1D8AA2" fill-opacity="0.23"/>
<path d="M82.9363 53.443C82.9363 51.6885 81.5978 50.2829 79.9662 50.2829H45.8157C44.1842 50.2829 42.8456 51.6885 42.8456 53.443V81.7737C42.8456 83.5282 44.1842 84.9337 45.8157 84.9337H79.9662C81.5978 84.9337 82.9363 83.5282 82.9363 81.7737V53.443ZM84.903 81.7737C84.903 84.6508 82.7015 86.9999 79.9662 86.9999H45.8157C43.0804 86.9999 40.8789 84.6508 40.8789 81.7737V53.443C40.8789 50.5659 43.0804 48.2168 45.8157 48.2168H79.9662C82.7015 48.2168 84.903 50.5659 84.903 53.443V81.7737Z" fill="url(#paint13_linear_269_3883)"/>
<path d="M77.5656 38.2397V49.2649H70.6622V38.2397C70.6622 33.6756 66.9283 29.9575 62.3475 29.9575C57.7795 29.9575 54.0713 33.6756 54.0713 38.2397V49.2649H47.168V38.2397C47.168 29.8678 53.9814 23.0601 62.3475 23.0601C70.8265 23.0601 77.5656 29.9556 77.5656 38.2397Z" fill="#E7ECFA"/>
<path d="M77.5964 38.8503C77.5964 30.7754 71.0659 24.0697 62.8722 24.0697C54.7901 24.0697 48.1879 30.6894 48.1879 38.8503V49.3041H53.2692V38.8503C53.2692 33.54 57.5602 29.1958 62.8722 29.1958C68.1923 29.1958 72.5152 33.5348 72.5152 38.8503V49.3041H77.5964V38.8503ZM79.6633 50.3328C79.6633 50.901 79.2006 51.3616 78.6298 51.3616H71.4818C70.911 51.3616 70.4483 50.901 70.4483 50.3328V38.8503C70.4483 34.6589 67.0385 31.2533 62.8722 31.2533C58.7243 31.2533 55.336 34.6536 55.336 38.8503V50.3328C55.336 50.901 54.8733 51.3616 54.3026 51.3616H47.1545C46.5838 51.3616 46.1211 50.901 46.1211 50.3328V38.8503C46.1211 29.5727 53.629 22.0122 62.8722 22.0122C72.2379 22.0122 79.6633 29.6696 79.6633 38.8503V50.3328Z" fill="url(#paint14_linear_269_3883)"/>
<path d="M65.0803 69.6591L66.3355 75.4701H58.4028L59.6581 69.6591C58.4417 68.7886 57.6523 67.3295 57.6523 65.6692C57.6523 62.978 59.7617 60.7954 62.3757 60.7954C64.9768 60.7954 67.0861 62.978 67.0861 65.6692C67.086 67.3295 66.2967 68.7887 65.0803 69.6591Z" fill="#E7ECFA"/>
<path d="M63.4239 59.7471C66.6127 59.7471 69.1825 62.4003 69.1825 65.6521V65.6521C69.1824 67.4071 68.4442 68.9854 67.2572 70.0624L68.398 75.3049C68.4623 75.6002 68.3913 75.9092 68.2052 76.1451C68.0191 76.3809 67.7378 76.5182 67.4405 76.5182H59.3942C59.0969 76.5182 58.8156 76.3809 58.6295 76.1451C58.4434 75.9092 58.3725 75.6002 58.4367 75.3049L59.5776 70.0624C58.3906 68.9854 57.6523 67.4071 57.6523 65.6521C57.6523 62.3986 60.2238 59.7471 63.4239 59.7471ZM59.6136 65.6521C59.6136 66.9928 60.2536 68.1587 61.2289 68.8515C61.5544 69.0827 61.7107 69.4908 61.6249 69.8851L60.6156 74.5229H66.2191L65.2099 69.8851C65.1241 69.4908 65.2804 69.0827 65.6059 68.8515C66.5812 68.1588 67.2212 66.9928 67.2213 65.6521L67.2209 65.6014C67.1945 63.4572 65.4956 61.7423 63.4239 61.7423C61.3212 61.7423 59.6136 63.4861 59.6136 65.6521Z" fill="url(#paint15_linear_269_3883)"/>
<defs>
<linearGradient id="paint0_linear_269_3883" x1="42.4518" y1="0" x2="42.4518" y2="32.494" gradientUnits="userSpaceOnUse">
<stop stop-color="#4834AA"/>
<stop offset="1" stop-color="#1D8AA2"/>
</linearGradient>
<linearGradient id="paint1_linear_269_3883" x1="14.6771" y1="9.43359" x2="14.6771" y2="22.0119" gradientUnits="userSpaceOnUse">
<stop stop-color="#4834AA"/>
<stop offset="1" stop-color="#1D8AA2"/>
</linearGradient>
<linearGradient id="paint2_linear_269_3883" x1="14.1518" y1="11.5298" x2="14.1518" y2="19.9153" gradientUnits="userSpaceOnUse">
<stop stop-color="#4834AA"/>
<stop offset="1" stop-color="#1D8AA2"/>
</linearGradient>
<linearGradient id="paint3_linear_269_3883" x1="14.1518" y1="11.5298" x2="14.1518" y2="19.9153" gradientUnits="userSpaceOnUse">
<stop stop-color="#4834AA"/>
<stop offset="1" stop-color="#1D8AA2"/>
</linearGradient>
<linearGradient id="paint4_linear_269_3883" x1="33.5443" y1="9.43359" x2="33.5443" y2="22.0119" gradientUnits="userSpaceOnUse">
<stop stop-color="#4834AA"/>
<stop offset="1" stop-color="#1D8AA2"/>
</linearGradient>
<linearGradient id="paint5_linear_269_3883" x1="33.5431" y1="11.5298" x2="33.5431" y2="19.9153" gradientUnits="userSpaceOnUse">
<stop stop-color="#4834AA"/>
<stop offset="1" stop-color="#1D8AA2"/>
</linearGradient>
<linearGradient id="paint6_linear_269_3883" x1="33.5431" y1="11.5298" x2="33.5431" y2="19.9153" gradientUnits="userSpaceOnUse">
<stop stop-color="#4834AA"/>
<stop offset="1" stop-color="#1D8AA2"/>
</linearGradient>
<linearGradient id="paint7_linear_269_3883" x1="51.3607" y1="9.43359" x2="51.3607" y2="22.0119" gradientUnits="userSpaceOnUse">
<stop stop-color="#4834AA"/>
<stop offset="1" stop-color="#1D8AA2"/>
</linearGradient>
<linearGradient id="paint8_linear_269_3883" x1="51.3595" y1="11.5298" x2="51.3595" y2="19.9153" gradientUnits="userSpaceOnUse">
<stop stop-color="#4834AA"/>
<stop offset="1" stop-color="#1D8AA2"/>
</linearGradient>
<linearGradient id="paint9_linear_269_3883" x1="51.3595" y1="11.5298" x2="51.3595" y2="19.9153" gradientUnits="userSpaceOnUse">
<stop stop-color="#4834AA"/>
<stop offset="1" stop-color="#1D8AA2"/>
</linearGradient>
<linearGradient id="paint10_linear_269_3883" x1="70.2279" y1="9.43359" x2="70.2279" y2="22.0119" gradientUnits="userSpaceOnUse">
<stop stop-color="#4834AA"/>
<stop offset="1" stop-color="#1D8AA2"/>
</linearGradient>
<linearGradient id="paint11_linear_269_3883" x1="70.7533" y1="11.5298" x2="70.7533" y2="19.9153" gradientUnits="userSpaceOnUse">
<stop stop-color="#4834AA"/>
<stop offset="1" stop-color="#1D8AA2"/>
</linearGradient>
<linearGradient id="paint12_linear_269_3883" x1="70.7533" y1="11.5298" x2="70.7533" y2="19.9153" gradientUnits="userSpaceOnUse">
<stop stop-color="#4834AA"/>
<stop offset="1" stop-color="#1D8AA2"/>
</linearGradient>
<linearGradient id="paint13_linear_269_3883" x1="62.891" y1="48.2168" x2="62.891" y2="86.9999" gradientUnits="userSpaceOnUse">
<stop stop-color="#4834AA"/>
<stop offset="1" stop-color="#1D8AA2"/>
</linearGradient>
<linearGradient id="paint14_linear_269_3883" x1="62.8922" y1="22.0122" x2="62.8922" y2="51.3616" gradientUnits="userSpaceOnUse">
<stop stop-color="#4834AA"/>
<stop offset="1" stop-color="#1D8AA2"/>
</linearGradient>
<linearGradient id="paint15_linear_269_3883" x1="63.4174" y1="59.7471" x2="63.4174" y2="76.5182" gradientUnits="userSpaceOnUse">
<stop stop-color="#4834AA"/>
<stop offset="1" stop-color="#1D8AA2"/>
</linearGradient>
</defs>
</svg>
